<svg width="389" height="94" viewBox="0 0 389 94" fill="none" xmlns="http://www.w3.org/2000/svg">
<g clip-path="url(#clip0_101_8)">
<path d="M109.236 59H100.212V33.5455H109.31C111.871 33.5455 114.075 34.055 115.923 35.0742C117.77 36.0851 119.191 37.5393 120.186 39.4368C121.188 41.3343 121.69 43.6046 121.69 46.2479C121.69 48.8994 121.188 51.178 120.186 53.0838C119.191 54.9896 117.762 56.4521 115.898 57.4712C114.042 58.4904 111.821 59 109.236 59ZM105.594 54.3888H109.012C110.603 54.3888 111.941 54.1071 113.027 53.5437C114.12 52.9719 114.941 52.0895 115.488 50.8963C116.043 49.6948 116.32 48.1454 116.32 46.2479C116.32 44.367 116.043 42.8299 115.488 41.6367C114.941 40.4435 114.125 39.5652 113.039 39.0018C111.954 38.4383 110.615 38.1566 109.025 38.1566H105.594V54.3888ZM134.277 59.3729C132.313 59.3729 130.623 58.9751 129.206 58.1797C127.797 57.3759 126.712 56.2408 125.95 54.7741C125.187 53.2992 124.806 51.555 124.806 49.5415C124.806 47.5778 125.187 45.8543 125.95 44.3711C126.712 42.8879 127.785 41.732 129.169 40.9034C130.561 40.0748 132.193 39.6605 134.066 39.6605C135.325 39.6605 136.498 39.8635 137.583 40.2695C138.677 40.6673 139.63 41.268 140.442 42.0717C141.262 42.8755 141.9 43.8864 142.356 45.1044C142.812 46.3142 143.04 47.7311 143.04 49.3551V50.8093H126.919V47.5281H138.055C138.055 46.7657 137.89 46.0904 137.558 45.5021C137.227 44.9138 136.767 44.454 136.179 44.1225C135.599 43.7828 134.923 43.6129 134.153 43.6129C133.349 43.6129 132.636 43.7994 132.015 44.1722C131.402 44.5368 130.921 45.0298 130.573 45.6513C130.225 46.2644 130.047 46.948 130.039 47.7021V50.8217C130.039 51.7663 130.213 52.5825 130.561 53.2702C130.917 53.958 131.418 54.4883 132.065 54.8612C132.711 55.234 133.477 55.4205 134.364 55.4205C134.952 55.4205 135.491 55.3376 135.98 55.1719C136.469 55.0062 136.887 54.7576 137.235 54.4261C137.583 54.0947 137.848 53.6887 138.031 53.2081L142.928 53.5312C142.679 54.7079 142.169 55.7353 141.399 56.6136C140.637 57.4837 139.651 58.1631 138.441 58.652C137.239 59.1326 135.851 59.3729 134.277 59.3729ZM163.78 39.9091L157.106 59H151.14L144.466 39.9091H150.059L154.024 53.5685H154.222L158.175 39.9091H163.78ZM174.575 59.3729C172.611 59.3729 170.921 58.9751 169.504 58.1797C168.095 57.3759 167.01 56.2408 166.248 54.7741C165.485 53.2992 165.104 51.555 165.104 49.5415C165.104 47.5778 165.485 45.8543 166.248 44.3711C167.01 42.8879 168.083 41.732 169.467 40.9034C170.859 40.0748 172.491 39.6605 174.364 39.6605C175.623 39.6605 176.796 39.8635 177.881 40.2695C178.975 40.6673 179.928 41.268 180.74 42.0717C181.56 42.8755 182.198 43.8864 182.654 45.1044C183.109 46.3142 183.337 47.7311 183.337 49.3551V50.8093H167.217V47.5281H178.353C178.353 46.7657 178.188 46.0904 177.856 45.5021C177.525 44.9138 177.065 44.454 176.477 44.1225C175.897 43.7828 175.221 43.6129 174.451 43.6129C173.647 43.6129 172.934 43.7994 172.313 44.1722C171.7 44.5368 171.219 45.0298 170.871 45.6513C170.523 46.2644 170.345 46.948 170.337 47.7021V50.8217C170.337 51.7663 170.511 52.5825 170.859 53.2702C171.215 53.958 171.716 54.4883 172.363 54.8612C173.009 55.234 173.775 55.4205 174.662 55.4205C175.25 55.4205 175.789 55.3376 176.278 55.1719C176.767 55.0062 177.185 54.7576 177.533 54.4261C177.881 54.0947 178.146 53.6887 178.328 53.2081L183.225 53.5312C182.977 54.7079 182.467 55.7353 181.697 56.6136C180.934 57.4837 179.948 58.1631 178.739 58.652C177.537 59.1326 176.149 59.3729 174.575 59.3729ZM192.087 33.5455V59H186.793V33.5455H192.087ZM204.954 59.3729C203.024 59.3729 201.354 58.9627 199.946 58.1424C198.545 57.3138 197.464 56.1621 196.702 54.6871C195.939 53.204 195.558 51.4846 195.558 49.5291C195.558 47.5571 195.939 45.8336 196.702 44.3587C197.464 42.8755 198.545 41.7237 199.946 40.9034C201.354 40.0748 203.024 39.6605 204.954 39.6605C206.885 39.6605 208.551 40.0748 209.951 40.9034C211.36 41.7237 212.445 42.8755 213.207 44.3587C213.97 45.8336 214.351 47.5571 214.351 49.5291C214.351 51.4846 213.97 53.204 213.207 54.6871C212.445 56.1621 211.36 57.3138 209.951 58.1424C208.551 58.9627 206.885 59.3729 204.954 59.3729ZM204.979 55.2713C205.858 55.2713 206.591 55.0227 207.179 54.5256C207.768 54.0201 208.211 53.3324 208.509 52.4624C208.816 51.5923 208.969 50.6022 208.969 49.4918C208.969 48.3815 208.816 47.3913 208.509 46.5213C208.211 45.6513 207.768 44.9635 207.179 44.4581C206.591 43.9527 205.858 43.6999 204.979 43.6999C204.093 43.6999 203.347 43.9527 202.742 44.4581C202.146 44.9635 201.694 45.6513 201.387 46.5213C201.089 47.3913 200.94 48.3815 200.94 49.4918C200.94 50.6022 201.089 51.5923 201.387 52.4624C201.694 53.3324 202.146 54.0201 202.742 54.5256C203.347 55.0227 204.093 55.2713 204.979 55.2713ZM217.794 66.1591V39.9091H223.014V43.1158H223.25C223.482 42.602 223.818 42.08 224.257 41.5497C224.704 41.0111 225.284 40.5637 225.997 40.2074C226.718 39.8428 227.612 39.6605 228.681 39.6605C230.073 39.6605 231.358 40.0251 232.534 40.7543C233.711 41.4751 234.651 42.5647 235.356 44.0231C236.06 45.4731 236.412 47.2919 236.412 49.4794C236.412 51.6089 236.068 53.407 235.381 54.8736C234.701 56.3319 233.773 57.4381 232.597 58.1921C231.428 58.9379 230.119 59.3107 228.669 59.3107C227.641 59.3107 226.767 59.1409 226.046 58.8011C225.334 58.4614 224.75 58.0347 224.294 57.521C223.838 56.9989 223.49 56.4728 223.25 55.9425H223.088V66.1591H217.794ZM222.976 49.4545C222.976 50.5897 223.134 51.5799 223.449 52.4251C223.764 53.2702 224.219 53.929 224.816 54.4013C225.413 54.8653 226.138 55.0973 226.991 55.0973C227.853 55.0973 228.582 54.8612 229.179 54.3888C229.775 53.9083 230.227 53.2454 230.533 52.4002C230.848 51.5468 231.006 50.5649 231.006 49.4545C231.006 48.3525 230.852 47.383 230.546 46.5462C230.239 45.7093 229.788 45.0547 229.191 44.5824C228.594 44.1101 227.861 43.8739 226.991 43.8739C226.129 43.8739 225.4 44.1018 224.804 44.5575C224.215 45.0133 223.764 45.6596 223.449 46.4964C223.134 47.3333 222.976 48.3194 222.976 49.4545ZM248.642 59.3729C246.679 59.3729 244.988 58.9751 243.571 58.1797C242.163 57.3759 241.077 56.2408 240.315 54.7741C239.553 53.2992 239.171 51.555 239.171 49.5415C239.171 47.5778 239.553 45.8543 240.315 44.3711C241.077 42.8879 242.15 41.732 243.534 40.9034C244.926 40.0748 246.558 39.6605 248.431 39.6605C249.69 39.6605 250.863 39.8635 251.948 40.2695C253.042 40.6673 253.995 41.268 254.807 42.0717C255.627 42.8755 256.265 43.8864 256.721 45.1044C257.177 46.3142 257.405 47.7311 257.405 49.3551V50.8093H241.284V47.5281H252.421C252.421 46.7657 252.255 46.0904 251.924 45.5021C251.592 44.9138 251.132 44.454 250.544 44.1225C249.964 43.7828 249.289 43.6129 248.518 43.6129C247.714 43.6129 247.002 43.7994 246.38 44.1722C245.767 44.5368 245.286 45.0298 244.938 45.6513C244.59 46.2644 244.412 46.948 244.404 47.7021V50.8217C244.404 51.7663 244.578 52.5825 244.926 53.2702C245.282 53.958 245.784 54.4883 246.43 54.8612C247.076 55.234 247.843 55.4205 248.729 55.4205C249.318 55.4205 249.856 55.3376 250.345 55.1719C250.834 55.0062 251.252 54.7576 251.6 54.4261C251.948 54.0947 252.214 53.6887 252.396 53.2081L257.293 53.5312C257.044 54.7079 256.535 55.7353 255.764 56.6136C255.002 57.4837 254.016 58.1631 252.806 58.652C251.605 59.1326 250.217 59.3729 248.642 59.3729ZM260.86 59V39.9091H265.993V43.2401H266.192C266.54 42.0552 267.124 41.1603 267.945 40.5554C268.765 39.9422 269.709 39.6357 270.778 39.6357C271.043 39.6357 271.329 39.6522 271.636 39.6854C271.943 39.7185 272.212 39.7641 272.444 39.8221V44.5202C272.195 44.4457 271.851 44.3794 271.412 44.3214C270.973 44.2634 270.571 44.2344 270.207 44.2344C269.428 44.2344 268.732 44.4042 268.119 44.744C267.514 45.0754 267.033 45.5394 266.677 46.136C266.329 46.7326 266.155 47.4203 266.155 48.1992V59H260.86Z" fill="#AD42FF"/>
<path d="M296.572 33.5455V59H291.923L280.849 42.979H280.662V59H275.281V33.5455H280.004L290.991 49.554H291.215V33.5455H296.572ZM309.619 59.3729C307.655 59.3729 305.965 58.9751 304.548 58.1797C303.139 57.3759 302.054 56.2408 301.291 54.7741C300.529 53.2992 300.148 51.555 300.148 49.5415C300.148 47.5778 300.529 45.8543 301.291 44.3711C302.054 42.8879 303.127 41.732 304.511 40.9034C305.903 40.0748 307.535 39.6605 309.408 39.6605C310.667 39.6605 311.84 39.8635 312.925 40.2695C314.019 40.6673 314.972 41.268 315.784 42.0717C316.604 42.8755 317.242 43.8864 317.698 45.1044C318.153 46.3142 318.381 47.7311 318.381 49.3551V50.8093H302.261V47.5281H313.397C313.397 46.7657 313.232 46.0904 312.9 45.5021C312.569 44.9138 312.109 44.454 311.521 44.1225C310.94 43.7828 310.265 43.6129 309.495 43.6129C308.691 43.6129 307.978 43.7994 307.357 44.1722C306.744 44.5368 306.263 45.0298 305.915 45.6513C305.567 46.2644 305.389 46.948 305.381 47.7021V50.8217C305.381 51.7663 305.555 52.5825 305.903 53.2702C306.259 53.958 306.76 54.4883 307.407 54.8612C308.053 55.234 308.819 55.4205 309.706 55.4205C310.294 55.4205 310.833 55.3376 311.322 55.1719C311.811 55.0062 312.229 54.7576 312.577 54.4261C312.925 54.0947 313.19 53.6887 313.372 53.2081L318.269 53.5312C318.021 54.7079 317.511 55.7353 316.741 56.6136C315.978 57.4837 314.992 58.1631 313.783 58.652C312.581 59.1326 311.193 59.3729 309.619 59.3729ZM325.466 59L320.271 39.9091H325.627L328.585 52.7358H328.759L331.842 39.9091H337.099L340.231 52.6612H340.393L343.301 39.9091H348.646L343.463 59H337.858L334.576 46.9936H334.34L331.059 59H325.466ZM367.355 45.353L362.507 45.6513C362.424 45.237 362.246 44.8641 361.973 44.5327C361.699 44.1929 361.339 43.9237 360.892 43.7248C360.452 43.5176 359.926 43.4141 359.313 43.4141C358.493 43.4141 357.801 43.5881 357.237 43.9361C356.674 44.2758 356.392 44.7315 356.392 45.3033C356.392 45.759 356.575 46.1443 356.939 46.4592C357.304 46.774 357.929 47.0268 358.816 47.2173L362.271 47.9134C364.127 48.2945 365.511 48.9077 366.422 49.7528C367.334 50.598 367.79 51.7083 367.79 53.0838C367.79 54.335 367.421 55.4329 366.683 56.3775C365.954 57.3221 364.952 58.0595 363.676 58.5898C362.408 59.1119 360.945 59.3729 359.288 59.3729C356.761 59.3729 354.747 58.8467 353.248 57.7944C351.756 56.7338 350.882 55.292 350.625 53.4691L355.833 53.1957C355.99 53.9663 356.372 54.5546 356.976 54.9606C357.581 55.3583 358.356 55.5572 359.301 55.5572C360.229 55.5572 360.974 55.379 361.538 55.0227C362.11 54.6581 362.4 54.19 362.408 53.6183C362.4 53.1377 362.197 52.7441 361.799 52.4375C361.401 52.1226 360.788 51.8823 359.959 51.7166L356.653 51.0579C354.789 50.685 353.401 50.0387 352.49 49.119C351.586 48.1992 351.135 47.0268 351.135 45.6016C351.135 44.3752 351.466 43.3188 352.129 42.4322C352.8 41.5456 353.741 40.862 354.95 40.3814C356.169 39.9008 357.594 39.6605 359.226 39.6605C361.637 39.6605 363.535 40.1701 364.919 41.1893C366.311 42.2085 367.123 43.5964 367.355 45.353Z" fill="white"/>
<path d="M36.2001 29.88C36.2001 29.88 33.9655 19.0545 36.0615 14.9602C38.1573 10.866 43.7171 11.9242 44.2366 13.902C44.7564 15.8797 45.0335 20.772 46.6095 20.8934C48.1858 21.0149 49.9006 21.8129 49.5021 23.0099C49.1037 24.207 46.4709 24.8662 46.3324 25.3867C46.1938 25.9071 47.2506 30.9382 47.2506 30.9382L36.2001 29.88Z" fill="#AD42FF"/>
<path d="M40.6168 21.5179C41.0952 21.5179 41.4828 20.7489 41.4828 19.8004C41.4828 18.8518 41.0952 18.0829 40.6168 18.0829C40.1386 18.0829 39.7507 18.8518 39.7507 19.8004C39.7507 20.7489 40.1386 21.5179 40.6168 21.5179Z" fill="#0F0F0F"/>
<path d="M43.4398 22.0212C43.9182 22.0212 44.3058 21.2522 44.3058 20.3037C44.3058 19.3551 43.9182 18.5862 43.4398 18.5862C42.9613 18.5862 42.5737 19.3551 42.5737 20.3037C42.5737 21.2522 42.9613 22.0212 43.4398 22.0212Z" fill="#0F0F0F"/>
<path d="M40.0104 16.7991C40.9458 16.5909 42.6778 16.4 44.1675 17.2501C44.3232 17.3369 44.4965 17.146 44.3751 17.0073C43.6133 16.0531 42.037 14.752 39.8718 16.5041C39.7333 16.6082 39.8546 16.8338 40.0104 16.7991Z" fill="#0F0F0F"/>
<path d="M44.0289 24.3803C44.0808 24.2242 43.977 24.0507 43.8212 24.0334C43.0763 23.8946 41.0846 23.4435 39.5084 22.5067C39.5084 22.5067 39.7683 21.8474 39.1099 22.2464C38.4519 22.6455 39.8202 27.4684 42.401 26.6009C43.3015 26.2887 43.8212 24.9702 44.0289 24.3803Z" fill="#0F0F0F"/>
<path d="M38.1745 13.503C38.1745 13.503 36.7196 10.467 31.8525 10.467C26.9854 10.467 22.482 20.1128 18.0133 19.0545C13.5273 17.9963 16.9567 21.8303 19.4682 21.8303C19.4682 21.8303 19.3297 22.6284 18.2731 23.0274C17.2166 23.4264 20.2476 25.4041 22.7591 23.9468C22.7591 23.9468 22.6206 24.6061 21.8411 25.5256C21.0444 26.445 23.5559 27.2431 25.0108 24.7275C26.4657 22.212 30.1551 15.4808 34.641 16.0186C39.1099 16.539 38.1745 13.503 38.1745 13.503Z" fill="#AD42FF"/>
<path d="M60.137 55.8335C60.137 55.8335 69.6632 66.416 68.4509 73.5289C67.2384 80.6417 59.271 79.4275 59.271 79.4275L52.5158 80.8153L49.9178 81.1623C49.9178 81.1623 51.6498 77.3456 49.0518 72.1411L57.8852 70.0592L51.3555 60.6737L60.137 55.8335Z" fill="white"/>
<path d="M33.0475 68.2376C34.312 70.7183 35.4898 73.6848 35.9055 76.6169C35.9402 76.8769 35.5764 76.9812 35.4723 76.7382C34.7971 75.2289 33.6017 73.043 32.2509 72.8174C32.2509 72.8174 18.7407 72.4706 13.891 72.2971C9.04122 72.1236 8.86802 88.0841 16.6623 90.166C24.4565 92.2479 23.9369 87.9108 23.9369 87.9108C23.9369 87.9108 20.1091 86.9219 18.4809 84.1633C18.3597 83.9553 18.6195 83.7122 18.81 83.8685C20.2996 85.0135 23.7983 87.3034 28.0766 87.5637C33.7922 87.9108 45.5702 85.135 48.688 79.9303C50.8704 76.2874 46.4362 69.4173 43.5786 65.6178C44.3232 66.0341 45.1201 66.572 45.934 67.3006C46.2805 67.6129 46.748 67.7345 47.1984 67.6649L61.0031 65.3578L57.712 57.6548C54.1268 59.0601 50.4895 61.5758 45.934 63.9697C39.9585 67.1098 34.9356 68.012 33.0475 68.2376Z" fill="white"/>
<path d="M18.8274 83.8858C20.3169 85.0308 23.8157 87.3207 28.0938 87.581C28.3365 87.5982 28.5961 87.5982 28.856 87.6155C23.3653 83.0704 23.781 75.3677 24.1275 72.6264C20.3342 72.5224 16.16 72.4011 13.891 72.3143C9.04123 72.1408 8.86802 88.1013 16.6623 90.1832C24.4565 92.2651 23.9369 87.9278 23.9369 87.9278C23.9369 87.9278 20.1091 86.9391 18.4809 84.1806C18.3597 83.955 18.6195 83.7295 18.8274 83.8858Z" fill="#212121"/>
<path d="M101.1 15.6714C98.6581 12.7916 95.1765 10.7271 91.4006 9.23511C90.9677 10.3107 90.1017 11.2302 88.9411 11.4384C88.6121 11.4904 88.1098 11.7333 87.7633 11.768C87.6767 11.8201 87.59 11.8721 87.5034 11.9241C87.4862 11.9415 87.469 11.9415 87.4515 11.9588C87.3995 12.0109 87.2782 12.115 87.1571 12.167C86.932 12.3579 86.724 12.566 86.4988 12.7742C86.2217 13.0518 85.9446 13.3294 85.6847 13.6243C85.6503 13.659 85.6156 13.711 85.5809 13.7631C85.529 13.8672 85.477 13.9886 85.4076 14.0927C85.3385 14.3182 85.2519 14.5264 85.1999 14.7519C85.1652 14.9254 85.1305 15.0989 85.0961 15.2724C85.0786 15.55 85.0267 15.8275 85.0095 16.1051C84.9747 16.8164 84.9573 17.5277 84.9747 18.2216C84.992 19.5748 85.0439 20.928 84.94 22.2812C84.9228 22.6108 84.8534 22.9404 84.7668 23.2354C95.6268 25.7856 94.8994 33.1067 83.5023 34.6679C69.646 36.5763 54.4039 31.3718 54.4039 31.3718C54.4039 31.3718 33.3593 25.3866 22.967 30.938C12.5746 36.4895 7.48237 56.6311 19.6761 64.2474C35.0048 73.8237 50.1777 58.4182 61.4706 57.3598C60.6218 55.9373 61.0722 53.8729 62.1287 52.7104C62.4233 52.3808 62.8389 52.1205 63.2893 51.9297C63.2374 51.8605 63.168 51.7737 63.1161 51.7042C63.0641 51.6697 62.9084 51.4786 62.7698 51.3399C62.4924 51.0451 62.2153 50.7675 61.921 50.5072C60.847 49.5358 59.5134 48.6856 58.8379 47.3499C58.2837 46.2394 58.1623 45.112 58.6474 43.9495C59.0631 42.9781 59.981 41.8851 61.1069 41.7463C61.2974 41.7288 61.4879 41.6943 61.6611 41.6768C61.3149 41.6595 60.9684 41.6248 60.6218 41.6248L60.5699 41.0177C60.5699 41.0177 58.3184 38.1376 57.2097 35.8824C57.1233 35.7264 57.3482 35.5876 57.4696 35.7264C58.7168 37.357 61.3321 40.6013 62.995 41.3645C105.43 43.7759 109.761 25.907 101.1 15.6714ZM57.3829 41.7288C54.3173 42.0411 50.9918 42.9085 47.4064 44.4698C35.2819 49.7266 22.6898 50.1601 19.9012 46.0834C19.7973 45.9446 19.9705 45.7711 20.1091 45.8751C20.5248 46.1874 21.1137 46.517 21.8065 46.5517C21.8758 46.5517 21.9451 46.4997 21.9624 46.4305C22.101 45.5283 23.1055 40.2543 26.7082 37.357C26.8641 37.2357 27.0373 37.4437 26.9161 37.5825C26.2579 38.2767 25.5131 39.2306 25.0974 40.341C24.9415 40.7401 24.9589 41.1737 25.1494 41.538C25.9115 43.2208 28.2152 48.1653 28.4576 48.1825C29.9819 48.2865 33.8616 48.1305 40.4955 46.3609C47.5277 44.4873 52.3082 41.1912 57.3829 41.7288Z" fill="white"/>
<path d="M53.9363 60.5349C53.1914 60.5869 52.8104 61.4891 53.3127 62.0442C54.9062 63.831 56.95 67.4222 55.1142 72.835C52.6891 79.9826 10.5136 90.8774 0.207831 93.4449C-0.10394 93.5317 -0.0519952 94 0.277096 94L61.3321 93.8265C61.5747 93.8265 61.7999 93.792 62.0251 93.7225C66.5109 92.3172 107.613 78.213 115.199 70.0592C121.452 63.3627 112.064 58.609 108.894 57.256C108.288 56.9957 107.63 56.8917 106.972 56.9437L53.9363 60.5349Z" fill="url(#paint0_radial_101_8)"/>
<path d="M57.2097 64.4206C57.2963 64.6114 57.3482 64.6981 57.4176 64.8889C59.2707 64.7501 60.2062 64.6809 62.094 64.5246C62.0073 64.3513 61.9729 64.247 61.8863 64.0738C59.9982 64.2298 59.063 64.2993 57.2097 64.4206Z" fill="#00FF85"/>
<path d="M60.1889 65.6181C60.2583 65.7913 60.2755 65.8781 60.345 66.0689C60.8819 66.0169 61.159 65.9997 61.7133 65.9476C61.6613 65.7741 61.6266 65.6873 61.5572 65.5138C61.003 65.5486 60.7259 65.5833 60.1889 65.6181Z" fill="#00FF85"/>
<path d="M62.3019 65.4446C62.3711 65.6179 62.3886 65.7046 62.4577 65.8782C64.2245 65.7222 65.1252 65.6354 66.9611 65.4619C66.8919 65.2883 66.8744 65.2191 66.8053 65.0455C64.9691 65.2015 64.0859 65.2883 62.3019 65.4446Z" fill="#AD42FF"/>
<path d="M67.7235 64.9587C67.7929 65.1323 67.8274 65.2015 67.8968 65.375C70.1483 65.167 72.3829 64.9587 74.6344 64.7332C74.5478 64.5772 74.5131 64.5076 74.4267 64.3516C72.1921 64.5424 69.9578 64.7504 67.7235 64.9587Z" fill="#AD42FF"/>
<path d="M58.3705 67.1616C58.4225 67.3351 58.4397 67.4219 58.4744 67.5955C58.9939 67.5432 59.271 67.5087 59.7908 67.4567C59.7561 67.2831 59.7389 67.1964 59.6867 67.0228C59.1499 67.0748 58.89 67.1096 58.3705 67.1616Z" fill="#00FF85"/>
<path d="M60.4313 66.9539C60.466 67.1274 60.5008 67.2142 60.5355 67.3874C62.2675 67.2142 63.1507 67.1099 64.9694 66.9366C64.9347 66.7803 64.9175 66.6936 64.8655 66.52C63.0641 66.6936 62.1809 66.7803 60.4313 66.9539Z" fill="#AD42FF"/>
<path d="M73.855 65.6003C73.9245 65.7566 73.9417 65.8259 73.9936 65.9821C75.6046 65.8086 77.2325 65.6351 78.8435 65.4615C78.774 65.3228 78.7396 65.236 78.653 65.0972C76.7302 65.3228 75.7603 65.4095 73.855 65.6003Z" fill="#00FF85"/>
<path d="M65.8007 66.416C65.8529 66.572 65.8701 66.6588 65.9048 66.8148C68.1563 66.5896 70.4253 66.3465 72.6771 66.1209C72.6249 65.9649 72.5905 65.8954 72.5386 65.7394C70.304 65.9649 68.0525 66.1905 65.8007 66.416Z" fill="#AD42FF"/>
<path d="M60.7604 69.4173C60.7604 69.5734 60.7604 69.6601 60.7604 69.8162C61.176 69.7641 61.384 69.7469 61.7997 69.6949C61.7997 69.5386 61.8169 69.4693 61.8169 69.313C61.384 69.3478 61.176 69.3653 60.7604 69.4173Z" fill="#00FF85"/>
<path d="M62.5618 69.209C62.5618 69.365 62.5618 69.4345 62.5446 69.5906C64.3113 69.3823 65.2292 69.261 67.0998 69.0527C67.0998 68.8967 67.0998 68.8272 67.0998 68.6711C65.2465 68.8967 64.3285 69.0007 62.5618 69.209Z" fill="#AD42FF"/>
<path d="M76.0027 67.665C76.0199 67.8038 76.0371 67.8733 76.0371 68.0293C76.4528 67.9773 76.6607 67.9598 77.0764 67.9078C77.0592 67.769 77.0417 67.6998 77.0245 67.561C76.626 67.5955 76.4183 67.613 76.0027 67.665Z" fill="#AD42FF"/>
<path d="M68.0872 68.5672C68.0872 68.7235 68.0872 68.7927 68.0872 68.949C70.4429 68.6712 72.8158 68.3936 75.1714 68.1336C75.1539 67.9948 75.1539 67.9253 75.1367 67.7693C72.7811 68.0293 70.4429 68.2896 68.0872 68.5672Z" fill="#AD42FF"/>
<path d="M77.908 67.4394C77.9427 67.5782 77.9427 67.6477 77.9599 67.7865C80.4542 67.4914 82.9309 67.1967 85.4251 66.9016C85.3904 66.7628 85.3557 66.6936 85.3212 66.572C82.8442 66.8668 80.3847 67.1619 77.908 67.4394Z" fill="#AD42FF"/>
<path d="M59.8596 73.98C59.773 74.1187 59.7211 74.188 59.6345 74.3268C60.0504 74.2575 60.2753 74.24 60.7084 74.1708C60.8123 74.032 60.847 73.9624 60.9336 73.8237C60.5005 73.8932 60.2753 73.9277 59.8596 73.98Z" fill="#00FF85"/>
<path d="M61.9038 73.7199C61.8171 73.8587 61.7652 73.9107 61.6786 74.0495C63.4453 73.8067 64.3977 73.6676 66.3552 73.4076C66.4415 73.2861 66.4937 73.2168 66.5801 73.0781C64.6229 73.3381 63.6705 73.4596 61.9038 73.7199Z" fill="#AD42FF"/>
<path d="M76.1063 71.8805C76.0372 72.0021 76.0025 72.0713 75.9158 72.1929C76.3662 72.1408 76.5914 72.1061 77.059 72.0541C77.1284 71.9325 77.1628 71.8633 77.2322 71.7418C76.7818 71.7938 76.5567 71.8285 76.1063 71.8805Z" fill="#00FF85"/>
<path d="M67.6021 72.939C67.5155 73.0778 67.4808 73.1298 67.377 73.2686C69.9059 72.939 72.4345 72.6267 74.9634 72.3144C75.05 72.1931 75.0847 72.1236 75.1539 72.0021C72.6425 72.3144 70.131 72.6267 67.6021 72.939Z" fill="#AD42FF"/>
<path d="M78.1676 71.6205C78.0985 71.742 78.0638 71.8113 77.9944 71.9328C80.6966 71.6033 83.3985 71.2737 86.1004 70.9266C86.1526 70.8051 86.1873 70.7359 86.2217 70.6143C83.5545 70.9614 80.8698 71.2909 78.1676 71.6205Z" fill="#AD42FF"/>
<path d="M58.2314 75.9921C58.1104 76.1136 58.041 76.1829 57.9024 76.3044C58.3181 76.2349 58.526 76.2176 58.9417 76.1481C59.0802 76.0268 59.1494 75.9573 59.2707 75.8361C58.8551 75.8881 58.6471 75.9225 58.2314 75.9921Z" fill="#00FF85"/>
<path d="M60.2928 75.628C60.1714 75.7495 60.1023 75.8188 59.9637 75.9403C61.713 75.68 62.6657 75.5585 64.6576 75.2985C64.7961 75.1769 64.8481 75.1077 64.9866 74.9861C63.0122 75.2464 62.0595 75.3852 60.2928 75.628Z" fill="#AD42FF"/>
<path d="M74.9976 73.7716C74.8765 73.8929 74.8246 73.9624 74.7032 74.084C75.1883 74.0317 75.4307 73.9972 75.9158 73.9452C76.0368 73.8237 76.0888 73.7541 76.2101 73.6329C75.725 73.6849 75.4826 73.7196 74.9976 73.7716Z" fill="#00FF85"/>
<path d="M66.0262 74.8471C65.9048 74.9686 65.8357 75.0379 65.7144 75.1594C68.2952 74.8298 70.8932 74.5 73.4738 74.188C73.5951 74.0664 73.6471 73.9969 73.7684 73.8757C71.1876 74.2052 68.6067 74.5175 66.0262 74.8471Z" fill="#AD42FF"/>
<path d="M76.8687 73.5113C76.7649 73.6329 76.7127 73.7021 76.5916 73.8236C79.3801 73.4941 82.1687 73.147 84.9575 72.7999C85.0613 72.6787 85.096 72.6091 85.1999 72.4876C82.4286 72.8347 79.64 73.1642 76.8687 73.5113Z" fill="#AD42FF"/>
<path d="M55.0448 77.2066C54.9062 77.3281 54.8368 77.3801 54.6982 77.5016C55.0448 77.4493 55.2177 77.4149 55.5643 77.3453C55.7028 77.2241 55.7722 77.1718 55.9108 77.0505C55.5643 77.1198 55.391 77.1546 55.0448 77.2066Z" fill="#00FF85"/>
<path d="M56.5863 76.9637C56.4477 77.085 56.3786 77.1373 56.2225 77.2585C57.7641 77.0157 58.6301 76.877 60.4663 76.6342C60.622 76.5127 60.6915 76.4606 60.83 76.3391C58.9938 76.5819 58.1278 76.7034 56.5863 76.9637Z" fill="#AD42FF"/>
<path d="M70.2521 75.1941C70.1136 75.3157 70.0441 75.3849 69.8884 75.5065C70.3559 75.4544 70.5986 75.4197 71.0834 75.3677C71.2395 75.2461 71.3086 75.1769 71.4471 75.0554C70.9624 75.1074 70.7197 75.1246 70.2521 75.1941Z" fill="#00FF85"/>
<path d="M61.7996 76.2003C61.6611 76.3219 61.5745 76.3739 61.4359 76.4954C63.9126 76.1659 66.3721 75.8535 68.8491 75.5412C68.9877 75.4197 69.0743 75.3677 69.2129 75.2462C66.7359 75.5412 64.2592 75.8535 61.7996 76.2003Z" fill="#AD42FF"/>
<path d="M59.271 73.0777C59.2016 73.2165 59.1669 73.286 59.0977 73.4248C60.7259 73.182 61.5919 73.0605 63.4106 72.8177C63.4797 72.6789 63.5144 72.6094 63.5836 72.4706C61.7824 72.7309 60.8989 72.8522 59.271 73.0777Z" fill="#00FF85"/>
<path d="M72.5731 71.3429C72.5212 71.4817 72.4865 71.5337 72.4171 71.6728C72.8502 71.6205 73.0582 71.586 73.5083 71.5337C73.5777 71.3949 73.5949 71.3429 73.6471 71.2042C73.2139 71.2562 72.9888 71.2737 72.5731 71.3429Z" fill="#00FF85"/>
<path d="M64.5537 72.3488C64.4843 72.4876 64.4498 72.5571 64.3804 72.6959C66.7533 72.3836 69.1437 72.0713 71.5165 71.7765C71.586 71.6377 71.6032 71.5854 71.6726 71.4467C69.2994 71.7417 66.9266 72.0365 64.5537 72.3488Z" fill="#AD42FF"/>
<path d="M74.5478 71.0826C74.4959 71.2214 74.4612 71.2734 74.4092 71.4122C77.0248 71.0826 79.64 70.7703 82.2728 70.4408C82.3075 70.3192 82.3247 70.25 82.3594 70.1112C79.7614 70.4408 77.1633 70.7703 74.5478 71.0826Z" fill="#AD42FF"/>
<path d="M83.3121 70.0072C83.2774 70.1284 83.2602 70.198 83.2255 70.3367C89.0105 69.6081 94.7783 68.8795 100.546 68.0468C100.546 67.9253 100.563 67.8558 100.563 67.7345C94.813 68.5499 89.0627 69.2958 83.3121 70.0072Z" fill="#AD42FF"/>
<path d="M64.4849 70.1112C64.4674 70.2672 64.4502 70.3367 64.4155 70.4755C66.2341 70.25 67.1868 70.1284 69.1268 69.9029C69.144 69.7641 69.1612 69.6946 69.1787 69.5386C67.2562 69.7641 66.3035 69.8857 64.4849 70.1112Z" fill="#00FF85"/>
<path d="M78.3756 68.4457C78.3756 68.5844 78.3756 68.654 78.3756 68.7927C78.8088 68.7407 79.0164 68.7235 79.4496 68.6712C79.4496 68.5324 79.4496 68.4632 79.4324 68.3244C79.0164 68.3764 78.8088 68.3937 78.3756 68.4457Z" fill="#00FF85"/>
<path d="M70.2005 69.417C70.183 69.5558 70.183 69.6253 70.1486 69.7814C72.5906 69.4866 75.0329 69.1915 77.4752 68.8967C77.4752 68.7579 77.4752 68.6884 77.4752 68.5496C75.0501 68.8447 72.6253 69.1222 70.2005 69.417Z" fill="#AD42FF"/>
<path d="M80.3503 68.2029C80.3675 68.3416 80.3675 68.4109 80.3675 68.5497C82.9136 68.2376 85.4772 67.9253 88.0231 67.613C88.0059 67.4742 87.9887 67.4222 87.954 67.2834C85.425 67.5955 82.8789 67.9078 80.3503 68.2029Z" fill="#AD42FF"/>
<path d="M57.0714 75.3157C56.9675 75.4372 56.9156 75.5065 56.8115 75.628C58.3186 75.3852 59.1324 75.2637 60.8992 75.0034C61.0205 74.8818 61.0724 74.8126 61.1763 74.691C59.4095 74.9341 58.5782 75.0729 57.0714 75.3157Z" fill="#AD42FF"/>
<path d="M70.2002 73.5116C70.0964 73.6504 70.0444 73.7024 69.9231 73.8412C70.3735 73.7892 70.5986 73.7544 71.0662 73.7024C71.1703 73.5812 71.2223 73.5116 71.3261 73.3729C70.8757 73.4249 70.6506 73.4596 70.2002 73.5116Z" fill="#00FF85"/>
<path d="M81.095 72.1408C81.0084 72.2624 80.9737 72.3319 80.887 72.4532C81.3549 72.4012 81.5973 72.3664 82.0649 72.3144C82.1515 72.1931 82.1862 72.1236 82.2728 72.0021C81.8052 72.0544 81.5626 72.0888 81.095 72.1408Z" fill="#00FF85"/>
<path d="M62.0945 74.5523C61.9907 74.6736 61.9385 74.7431 61.8174 74.8646C64.1728 74.5348 66.546 74.2225 68.9188 73.9277C69.0227 73.8061 69.0746 73.7369 69.1787 73.6154C66.8231 73.9277 64.4674 74.2225 62.0945 74.5523Z" fill="#AD42FF"/>
<path d="M72.1055 73.2513C72.0013 73.3726 71.9494 73.4421 71.8456 73.5634C74.5303 73.2338 77.2149 72.9043 79.8996 72.5747C79.9863 72.4532 80.0382 72.3839 80.1076 72.2624C77.4573 72.5919 74.7727 72.9215 72.1055 73.2513Z" fill="#AD42FF"/>
<path d="M83.2599 71.8805C83.1905 72.0017 83.1385 72.0713 83.0694 72.1925C85.806 71.8457 88.5598 71.5162 91.2967 71.1519C91.3658 71.0303 91.4006 70.9608 91.4525 70.8395C88.7159 71.2039 85.9793 71.5334 83.2599 71.8805Z" fill="#AD42FF"/>
<path d="M76.6955 64.1258C76.7993 64.2821 76.834 64.3514 76.9207 64.5077C79.2936 64.2821 81.6664 64.0391 84.0393 63.779C83.918 63.6402 83.866 63.5707 83.745 63.4319C81.4065 63.6747 79.0509 63.9003 76.6955 64.1258Z" fill="#AD42FF"/>
<path d="M84.7495 63.3276C84.8706 63.4664 84.94 63.5359 85.0438 63.6747C86.4468 63.5359 87.1568 63.4492 88.5598 63.2932C88.4388 63.1544 88.3693 63.0848 88.2308 62.9633C86.8453 63.1196 86.1522 63.1889 84.7495 63.3276Z" fill="#00FF85"/>
<path d="M89.2529 62.8596C89.3914 62.9984 89.4608 63.0676 89.5994 63.1892C89.9284 63.1544 90.1017 63.1371 90.4479 63.1024C90.3094 62.9636 90.2402 62.9116 90.1017 62.7728C89.7552 62.8076 89.5819 62.8248 89.2529 62.8596Z" fill="#00FF85"/>
<path d="M75.0676 64.2821C75.1542 64.4381 75.2061 64.5077 75.2927 64.6637C75.6912 64.6292 75.8817 64.6117 76.2801 64.5597C76.1935 64.4036 76.1416 64.3341 76.0549 64.1781C75.6565 64.2301 75.466 64.2473 75.0676 64.2821Z" fill="#AD42FF"/>
<path d="M58.7515 68.3416C58.7687 68.5152 58.7859 68.5844 58.8034 68.7579C60.4835 68.5672 61.3495 68.4632 63.1163 68.2721C63.0988 68.1161 63.0988 68.0293 63.0641 67.8733C61.3148 68.0641 60.4316 68.1508 58.7515 68.3416Z" fill="#00FF85"/>
<path d="M64.017 67.769C64.0342 67.925 64.0515 68.0118 64.069 68.1678C66.3205 67.925 68.5548 67.6647 70.8066 67.4219C70.7894 67.2659 70.7719 67.1964 70.7372 67.0403C68.4857 67.2831 66.2514 67.5259 64.017 67.769Z" fill="#AD42FF"/>
<path d="M73.041 66.7976C73.0754 66.9536 73.0929 67.0231 73.1273 67.1791C75.5696 66.9016 78.0291 66.6415 80.4714 66.3637C80.4195 66.2249 80.3847 66.1557 80.3328 66.0169C77.908 66.2597 75.483 66.52 73.041 66.7976Z" fill="#AD42FF"/>
<path d="M81.3718 65.8781C81.4412 66.0169 81.4585 66.0862 81.5104 66.2249C86.8106 65.6178 92.1108 64.9932 97.3936 64.3166C97.2894 64.1953 97.255 64.1258 97.1509 64.0045C91.9029 64.6636 86.6373 65.2883 81.3718 65.8781Z" fill="#AD42FF"/>
<path d="M71.3955 66.9711C71.4302 67.1271 71.4474 67.1966 71.4646 67.3526C71.8631 67.3006 72.071 67.2834 72.4692 67.2486C72.4348 67.0923 72.4173 67.0231 72.3826 66.8671C71.9844 66.9016 71.7765 66.9363 71.3955 66.9711Z" fill="#AD42FF"/>
<path d="M58.9939 72.0366C58.9592 72.1753 58.9245 72.2621 58.8901 72.4009C60.5008 72.1753 61.3668 72.0541 63.1507 71.811C63.2027 71.6723 63.2202 71.603 63.2721 71.4642C61.4709 71.707 60.6046 71.811 58.9939 72.0366Z" fill="#00FF85"/>
<path d="M64.2075 71.3427C64.1556 71.4814 64.1383 71.551 64.0864 71.6898C66.4074 71.3774 68.7455 71.0999 71.0837 70.8048C71.1359 70.666 71.1531 70.5968 71.1878 70.458C68.8494 70.7528 66.5284 71.0479 64.2075 71.3427Z" fill="#AD42FF"/>
<path d="M73.6298 70.1629C73.5951 70.302 73.5779 70.3712 73.5432 70.51C76.1588 70.1977 78.774 69.8681 81.3896 69.5558C81.4068 69.417 81.424 69.365 81.424 69.2263C78.826 69.5386 76.2279 69.8509 73.6298 70.1629Z" fill="#AD42FF"/>
<path d="M82.5324 69.0878C82.5149 69.2266 82.5152 69.2786 82.4977 69.4174C88.0922 68.7235 93.6696 68.0121 99.2641 67.2314C99.2466 67.1099 99.2294 67.0407 99.2122 66.9191C93.6696 67.6825 88.1094 68.3936 82.5324 69.0878Z" fill="#AD42FF"/>
<path d="M71.8803 70.389C71.8456 70.5278 71.8284 70.597 71.7765 70.7358C72.1921 70.6838 72.4173 70.6666 72.833 70.597C72.8677 70.4583 72.8849 70.389 72.9196 70.2502C72.504 70.3022 72.296 70.3367 71.8803 70.389Z" fill="#00FF85"/>
<path d="M62.6484 64.0218C62.7351 64.1951 62.7695 64.2994 62.8561 64.4726C65.0732 64.2994 67.2903 64.1083 69.5074 63.935C69.4208 63.7615 69.3689 63.692 69.2648 63.5184C67.0652 63.692 64.8655 63.8655 62.6484 64.0218Z" fill="#AD42FF"/>
<path d="M71.4647 63.3279C71.5685 63.4839 71.6204 63.5707 71.7246 63.7443C74.0108 63.5535 76.297 63.3452 78.5833 63.1371C78.4622 62.9809 78.3928 62.9116 78.2717 62.7553C76.0027 62.9636 73.7337 63.1544 71.4647 63.3279Z" fill="#AD42FF"/>
<path d="M79.0686 62.686C79.2072 62.842 79.2591 62.9116 79.3976 63.0676C83.8143 62.6513 88.2483 62.2174 92.665 61.7663C92.492 61.6451 92.4054 61.5755 92.2321 61.4368C87.8326 61.8879 83.4506 62.2869 79.0686 62.686Z" fill="#AD42FF"/>
<path d="M70.062 63.4492C70.1658 63.6227 70.2177 63.6919 70.3043 63.8655C70.6162 63.8307 70.7722 63.8307 71.0837 63.7962C70.9799 63.6399 70.9452 63.5532 70.8413 63.3796C70.5295 63.4144 70.3738 63.4144 70.062 63.4492Z" fill="#AD42FF"/>
<path d="M53.7975 78.1607C53.6418 78.2822 53.5724 78.3342 53.3991 78.4382C54.8368 78.1782 55.6681 78.0392 57.5215 77.7791C57.6948 77.6576 57.7814 77.6056 57.9372 77.4841C56.1013 77.7616 55.2525 77.9004 53.7975 78.1607Z" fill="#00FF85"/>
<path d="M54.5422 78.6638C54.369 78.7678 54.2826 78.8373 54.0919 78.9414C54.5597 78.8721 54.8021 78.8201 55.3216 78.7506C55.5124 78.6466 55.599 78.577 55.772 78.473C55.2697 78.5598 55.0273 78.5946 54.5422 78.6638Z" fill="#00FF85"/>
<path d="M56.4997 78.369C56.3264 78.4903 56.2226 78.5423 56.0493 78.6466C57.7469 78.4035 58.6821 78.2822 60.674 78.0219C60.8645 77.9004 60.9511 77.8484 61.1416 77.7444C59.1324 78.0047 58.1973 78.1259 56.4997 78.369Z" fill="#AD42FF"/>
<path d="M62.1634 77.6056C61.9729 77.7271 61.8863 77.7792 61.6958 77.8832C64.3286 77.5536 66.9785 77.2413 69.6113 76.9465C69.7846 76.825 69.8884 76.773 70.0617 76.6514C67.4289 76.9637 64.7961 77.2933 62.1634 77.6056Z" fill="#AD42FF"/>
<path d="M51.3555 79.8088C51.1647 79.9131 51.0784 79.9651 50.8876 80.0691C51.2861 79.9998 51.494 79.9651 51.9269 79.8955C52.1174 79.7915 52.2215 79.7395 52.412 79.618C51.9616 79.6875 51.7537 79.7395 51.3555 79.8088Z" fill="#00FF85"/>
<path d="M53.0356 79.514C52.8451 79.618 52.7413 79.67 52.5508 79.7915C54.0229 79.5487 54.8717 79.4272 56.7076 79.1844C56.9156 79.0801 57.0194 79.0109 57.2099 78.9069C55.374 79.1669 54.5252 79.2884 53.0356 79.514Z" fill="#AD42FF"/>
<path d="M67.2904 77.6924C67.0999 77.8137 66.9961 77.8657 66.7881 77.97C68.7453 77.7444 70.7197 77.5361 72.6772 77.3281C72.8677 77.2066 72.9716 77.1546 73.162 77.033C71.2048 77.2586 69.2476 77.4669 67.2904 77.6924Z" fill="#00FF85"/>
<path d="M58.1798 78.7856C57.9718 78.8896 57.8852 78.9589 57.6775 79.0631C60.1889 78.7336 62.7175 78.4385 65.2465 78.161C65.4541 78.0394 65.5583 77.9874 65.7487 77.8834C63.2026 78.161 60.6912 78.4558 58.1798 78.7856Z" fill="#AD42FF"/>
<path d="M49.8831 81.11C49.6579 81.2143 49.5368 81.2663 49.3116 81.3703C49.6579 81.3183 49.8311 81.2836 50.1949 81.2316C50.4373 81.1275 50.5414 81.0755 50.7666 80.9713C50.4028 81.0233 50.2296 81.058 49.8831 81.11Z" fill="#00FF85"/>
<path d="M51.4421 80.867C51.2169 80.9712 51.0959 81.0233 50.8532 81.1273C52.4467 80.9017 53.3474 80.7802 55.3047 80.5546C55.5473 80.4506 55.6684 80.3986 55.8936 80.2946C53.9363 80.5374 53.0356 80.6414 51.4421 80.867Z" fill="#AD42FF"/>
<path d="M65.9048 79.1847C65.6796 79.2887 65.5586 79.358 65.3159 79.4622C65.801 79.4102 66.0609 79.3927 66.5457 79.3407C66.7883 79.2367 66.8922 79.1672 67.1346 79.0632C66.6323 79.1152 66.3899 79.1499 65.9048 79.1847Z" fill="#00FF85"/>
<path d="M56.9325 80.1731C56.6899 80.2771 56.5688 80.3291 56.3436 80.4334C58.9936 80.1383 61.6436 79.8435 64.311 79.566C64.5534 79.4617 64.6748 79.3925 64.9 79.2885C62.2325 79.5832 59.5825 79.8608 56.9325 80.1731Z" fill="#AD42FF"/>
<path d="M68.1736 78.9589C67.9484 79.0801 67.8274 79.1321 67.6022 79.2364C70.5812 78.9414 73.5605 78.629 76.5395 78.3343C76.7646 78.2127 76.8685 78.1607 77.0937 78.0392C74.1147 78.3515 71.1354 78.6466 68.1736 78.9589Z" fill="#AD42FF"/>
<path d="M42.1411 84.2157C41.8468 84.3197 41.7082 84.3545 41.3964 84.4585C41.7082 84.4237 41.8815 84.3889 42.2277 84.3545C42.5223 84.2502 42.6781 84.2157 42.9724 84.1114C42.6434 84.1462 42.4701 84.1634 42.1411 84.2157Z" fill="#00FF85"/>
<path d="M43.6477 84.0246C43.3534 84.1289 43.1973 84.1809 42.903 84.2677C44.4443 84.0942 45.345 83.9902 47.3197 83.7991C47.6315 83.6951 47.7873 83.6431 48.0816 83.5391C46.09 83.7298 45.1893 83.8339 43.6477 84.0246Z" fill="#AD42FF"/>
<path d="M58.3358 82.6368C58.024 82.7409 57.8683 82.8104 57.5737 82.9144C58.0762 82.8796 58.3358 82.8449 58.8556 82.8104C59.1674 82.7061 59.3232 82.6368 59.6175 82.5328C59.098 82.5848 58.8556 82.6021 58.3358 82.6368Z" fill="#00FF85"/>
<path d="M49.1212 83.452C48.8093 83.5562 48.6533 83.6082 48.3415 83.7123C51.0609 83.4695 53.7978 83.2264 56.5169 83.0184C56.8287 82.9141 56.9847 82.8621 57.2963 82.7408C54.5597 82.9489 51.8403 83.1919 49.1212 83.452Z" fill="#AD42FF"/>
<path d="M60.6915 82.446C60.3797 82.5501 60.2411 82.6196 59.9293 82.7236C62.995 82.4808 66.0781 82.2378 69.1437 81.995C69.4555 81.8734 69.5941 81.8214 69.8887 81.6999C66.8228 81.9602 63.7571 82.2033 60.6915 82.446Z" fill="#AD42FF"/>
<path d="M37.5339 85.6554C37.2049 85.7594 37.0489 85.7942 36.7198 85.8982C37.0144 85.8635 37.1702 85.8462 37.5165 85.8114C37.8458 85.7074 38.0015 85.6727 38.3305 85.5687C37.9843 85.5859 37.8283 85.6031 37.5339 85.6554Z" fill="#00FF85"/>
<path d="M38.9366 85.4819C38.6073 85.5859 38.4516 85.6207 38.105 85.7247C39.5775 85.5686 40.4607 85.4819 42.4007 85.3259C42.7469 85.2216 42.903 85.1696 43.2492 85.0656C41.3095 85.2391 40.426 85.3259 38.9366 85.4819Z" fill="#AD42FF"/>
<path d="M53.5032 84.3022C53.1569 84.4065 53.0009 84.4757 52.6547 84.5797C53.1569 84.5452 53.4166 84.5277 53.9363 84.4929C54.2826 84.3889 54.4558 84.3197 54.7851 84.2154C54.2829 84.2329 54.023 84.2502 53.5032 84.3022Z" fill="#00FF85"/>
<path d="M44.2885 84.996C43.9595 85.1 43.7862 85.152 43.4397 85.256C46.1591 85.0305 48.8785 84.8397 51.5976 84.6489C51.9441 84.5449 52.1174 84.4929 52.4464 84.3714C49.727 84.5622 47.0079 84.7705 44.2885 84.996Z" fill="#AD42FF"/>
<path d="M55.8761 84.1286C55.5298 84.2329 55.3738 84.3022 55.0275 84.4062C58.1279 84.1982 61.211 83.9899 64.3113 83.7818C64.6576 83.6603 64.8136 83.6083 65.1598 83.4868C62.0595 83.6951 58.9592 83.9031 55.8761 84.1286Z" fill="#AD42FF"/>
<path d="M33.4287 86.5921C33.0997 86.6789 32.9437 86.7309 32.6146 86.8176C32.8051 86.7829 32.8917 86.7653 33.1169 86.7309C33.4459 86.6441 33.6192 86.5921 33.9482 86.5053C33.723 86.5401 33.6192 86.5573 33.4287 86.5921Z" fill="#00FF85"/>
<path d="M34.3811 86.4533C34.0521 86.54 33.8788 86.592 33.5498 86.6961C34.5891 86.5573 35.2818 86.488 36.8928 86.3493C37.2391 86.245 37.4123 86.193 37.7588 86.1062C36.1306 86.245 35.4379 86.3145 34.3811 86.4533Z" fill="#AD42FF"/>
<path d="M46.9732 85.3776C46.627 85.4819 46.4365 85.5339 46.0728 85.6379C46.5575 85.6031 46.8002 85.5859 47.285 85.5511C47.6487 85.4471 47.822 85.3951 48.1857 85.2736C47.7007 85.3431 47.4583 85.3603 46.9732 85.3776Z" fill="#00FF85"/>
<path d="M38.6249 86.0197C38.2786 86.1237 38.1054 86.1757 37.7589 86.2625C40.2011 86.0545 42.6434 85.8809 45.0854 85.7246C45.4492 85.6206 45.6224 85.5686 45.9862 85.4646C43.5267 85.6206 41.0844 85.7942 38.6249 86.0197Z" fill="#AD42FF"/>
<path d="M43.3189 83.5908C43.0418 83.6948 42.9033 83.7295 42.6262 83.8336C43.8037 83.6428 44.5487 83.556 46.2288 83.348C46.5231 83.2437 46.6617 83.1917 46.9388 83.1049C45.2589 83.3132 44.514 83.4 43.3189 83.5908Z" fill="#00FF85"/>
<path d="M56.2051 82.1683C55.9105 82.2723 55.7719 82.3246 55.4776 82.4286C55.9452 82.3938 56.1876 82.359 56.6726 82.3246C56.967 82.2203 57.1055 82.1683 57.4001 82.047C56.915 82.099 56.6727 82.1162 56.2051 82.1683Z" fill="#00FF85"/>
<path d="M47.8567 83.0012C47.5624 83.1052 47.4239 83.1572 47.1293 83.2615C49.5888 82.9839 52.0311 82.7584 54.4906 82.5328C54.7852 82.4285 54.9237 82.3765 55.218 82.2725C52.7585 82.4981 50.299 82.7236 47.8567 83.0012Z" fill="#AD42FF"/>
<path d="M58.4222 81.9602C58.1279 82.0642 57.9893 82.1162 57.6947 82.2377C60.6912 81.9774 63.6877 81.7171 66.6842 81.4743C66.9785 81.3528 67.117 81.3008 67.3941 81.1793C64.3977 81.4396 61.4187 81.6999 58.4222 81.9602Z" fill="#AD42FF"/>
<path d="M68.4851 81.0926C68.208 81.2141 68.0695 81.2661 67.7751 81.3876C74.0972 80.8498 80.4192 80.3467 86.7065 79.6528C86.9836 79.5313 87.1221 79.462 87.3992 79.3232C81.1119 80.0171 74.7899 80.5375 68.4851 81.0926Z" fill="#AD42FF"/>
<path d="M51.5113 81.4048C51.2689 81.5088 51.1303 81.5609 50.8876 81.6651C52.6372 81.4396 53.607 81.3356 55.7028 81.11C55.9627 81.0058 56.084 80.9537 56.3436 80.8497C54.2479 81.0753 53.2605 81.1793 51.5113 81.4048Z" fill="#00FF85"/>
<path d="M66.8053 79.7568C66.5629 79.861 66.4415 79.9303 66.1816 80.0343C66.6839 79.9823 66.9438 79.9651 67.4461 79.9131C67.706 79.7915 67.8273 79.7395 68.0697 79.6355C67.5674 79.6875 67.3075 79.7223 66.8053 79.7568Z" fill="#00FF85"/>
<path d="M57.4176 80.711C57.158 80.815 57.0367 80.867 56.7768 80.9713C59.5656 80.6762 62.3369 80.3986 65.1254 80.1383C65.3853 80.0343 65.5064 79.9648 65.7491 79.8608C62.9777 80.1383 60.2064 80.4159 57.4176 80.711Z" fill="#AD42FF"/>
<path d="M69.1437 79.5313C68.9013 79.6528 68.78 79.7048 68.5201 79.8088C71.5341 79.514 74.5478 79.2365 77.5615 78.9414C77.8042 78.8201 77.9252 78.7681 78.1504 78.6466C75.1539 78.9589 72.1402 79.2365 69.1437 79.5313Z" fill="#AD42FF"/>
<path d="M38.2439 85.1698C37.9496 85.2566 37.7935 85.3086 37.4992 85.3953C38.4344 85.2393 39.058 85.1526 40.5648 84.979C40.8766 84.875 41.0324 84.8403 41.3617 84.736C39.8374 84.927 39.1793 85.0138 38.2439 85.1698Z" fill="#AD42FF"/>
<path d="M50.0913 83.9378C49.762 84.0419 49.6062 84.0939 49.2772 84.1979C49.7448 84.1634 49.97 84.1459 50.455 84.1114C50.7841 84.0071 50.9398 83.9551 51.2689 83.8511C50.7841 83.8858 50.5414 83.9031 50.0913 83.9378Z" fill="#00FF85"/>
<path d="M62.2847 82.984C61.9729 83.1055 61.7997 83.1575 61.4879 83.2787C62.0248 83.2443 62.2847 83.2267 62.8214 83.1747C63.1507 83.0532 63.3065 83.0012 63.6183 82.8799C63.0813 82.9319 62.8214 82.9492 62.2847 82.984Z" fill="#00FF85"/>
<path d="M42.1581 84.6665C41.8462 84.7705 41.6905 84.8225 41.3615 84.9092C43.6824 84.6665 46.0034 84.4757 48.3068 84.2849C48.6361 84.1806 48.7919 84.1286 49.1209 84.0246C46.8 84.2154 44.479 84.4237 42.1581 84.6665Z" fill="#AD42FF"/>
<path d="M52.2562 83.764C51.9272 83.8683 51.7714 83.9203 51.4421 84.0243C54.4214 83.7988 57.4004 83.5732 60.3797 83.3477C60.7087 83.2264 60.8648 83.1744 61.1938 83.0701C58.2145 83.2957 55.2355 83.5212 52.2562 83.764Z" fill="#AD42FF"/>
<path d="M64.727 82.8101C64.4152 82.9313 64.2419 82.9836 63.9301 83.1049C66.9613 82.8793 70.0097 82.6538 73.0407 82.4282C73.37 82.307 73.5257 82.2375 73.8376 82.1162C70.7891 82.3418 67.7579 82.5845 64.727 82.8101Z" fill="#AD42FF"/>
<path d="M72.8846 76.3394C72.7113 76.4609 72.6247 76.5129 72.4517 76.6342C75.4135 76.3046 78.3753 75.9751 81.3371 75.628C81.4929 75.5067 81.5795 75.4547 81.7355 75.3332C78.791 75.6627 75.8292 76.0098 72.8846 76.3394Z" fill="#AD42FF"/>
<path d="M82.9828 75.1941C82.827 75.3157 82.7404 75.3677 82.5846 75.4892C84.3166 75.2984 85.1826 75.1941 86.8972 74.9861C87.0532 74.8646 87.1224 74.8126 87.2784 74.691C85.5808 74.8821 84.7148 74.9861 82.9828 75.1941Z" fill="#00FF85"/>
<path d="M88.4735 74.535C88.3177 74.6566 88.2483 74.7258 88.0925 74.8474C88.4907 74.7954 88.6987 74.7778 89.0971 74.7258C89.2529 74.6043 89.3223 74.535 89.478 74.4135C89.0796 74.4655 88.8891 74.483 88.4735 74.535Z" fill="#00FF85"/>
<path d="M70.8585 76.5647C70.6852 76.6859 70.5986 76.7379 70.4081 76.8595C70.8932 76.8075 71.1356 76.7727 71.6207 76.7207C71.7939 76.5992 71.8803 76.5472 72.0536 76.4259C71.586 76.4952 71.3436 76.5127 70.8585 76.5647Z" fill="#00FF85"/>
<path d="M50.0913 80.5377C49.8833 80.6417 49.7795 80.6937 49.5715 80.7978C50.8188 80.5725 51.5635 80.4509 53.2264 80.2254C53.4516 80.1214 53.5554 80.0691 53.7631 79.9651C52.1177 80.1906 51.3555 80.2946 50.0913 80.5377Z" fill="#00FF85"/>
<path d="M54.6638 79.8263C54.4561 79.9303 54.3348 79.9823 54.1268 80.0866C56.5 79.7743 58.8729 79.4792 61.2629 79.2192C61.4881 79.1149 61.5922 79.0457 61.8171 78.9417C59.4271 79.2192 57.0542 79.4968 54.6638 79.8263Z" fill="#AD42FF"/>
<path d="M64.4843 78.6463C64.2766 78.7506 64.1553 78.8199 63.9476 78.9239C66.8747 78.5943 69.8192 78.2995 72.7463 77.9872C72.9543 77.8657 73.0581 77.8137 73.2658 77.6921C70.3387 78.0045 67.4116 78.3168 64.4843 78.6463Z" fill="#AD42FF"/>
<path d="M74.5131 77.5536C74.3051 77.6749 74.2013 77.7269 73.9933 77.8484C80.1767 77.1893 86.3777 76.5475 92.5437 75.7841C92.7341 75.6625 92.8383 75.5933 93.0113 75.4717C86.8625 76.2351 80.6965 76.8943 74.5131 77.5536Z" fill="#AD42FF"/>
<path d="M62.5618 78.8549C62.3541 78.9589 62.2328 79.0284 62.0076 79.1324C62.458 79.0804 62.7004 79.0632 63.1507 79.0112C63.3759 78.9069 63.48 78.8376 63.6877 78.7333C63.2374 78.7856 63.0122 78.8029 62.5618 78.8549Z" fill="#00FF85"/>
<path d="M44.9124 82.8971C44.6525 83.0012 44.5312 83.0359 44.2713 83.1399C45.4144 82.9492 46.1247 82.8449 47.7701 82.6368C48.0472 82.5328 48.1685 82.4805 48.4456 82.3765C46.8002 82.6021 46.0727 82.7061 44.9124 82.8971Z" fill="#00FF85"/>
<path d="M49.3117 82.2723C49.0518 82.3763 48.9132 82.4283 48.6361 82.5323C51.0265 82.2375 53.4341 81.9947 55.8241 81.7692C56.1012 81.6649 56.2398 81.6129 56.5169 81.5089C54.1093 81.7344 51.7017 81.9947 49.3117 82.2723Z" fill="#AD42FF"/>
<path d="M59.2363 81.2316C58.9592 81.3356 58.8207 81.3876 58.5436 81.5091C61.5573 81.2316 64.571 80.954 67.5847 80.6765C67.8621 80.5549 67.9831 80.5029 68.2602 80.3989C65.2637 80.659 62.25 80.9368 59.2363 81.2316Z" fill="#AD42FF"/>
<path d="M69.5769 80.2601C69.3173 80.3817 69.1787 80.4337 68.9188 80.5549C75.1714 79.9998 81.4243 79.4447 87.6769 78.7508C87.9368 78.6293 88.0581 78.5601 88.3177 78.4385C82.0651 79.1324 75.8123 79.6875 69.5769 80.2601Z" fill="#AD42FF"/>
<path d="M57.175 81.4224C56.8804 81.5436 56.7246 81.5956 56.43 81.7172C56.9323 81.6652 57.1922 81.6479 57.6945 81.5956C57.989 81.4744 58.1448 81.4224 58.4391 81.3008C57.9368 81.3528 57.6772 81.3701 57.175 81.4224Z" fill="#00FF85"/>
<path d="M58.6993 77.3801C58.5435 77.5013 58.4569 77.5533 58.2836 77.6749C60.7084 77.3278 63.1335 77.0158 65.5755 76.7207C65.7488 76.5992 65.8182 76.5472 65.9915 76.4259C63.5492 76.7379 61.1244 77.033 58.6993 77.3801Z" fill="#AD42FF"/>
<path d="M68.6067 76.1139C68.4506 76.2351 68.3643 76.2871 68.2083 76.4087C71.0662 76.0616 73.9069 75.732 76.7646 75.4025C76.9206 75.281 76.9897 75.229 77.1458 75.1074C74.2704 75.4373 71.4299 75.7668 68.6067 76.1139Z" fill="#AD42FF"/>
<path d="M78.1332 74.9859C77.9947 75.1074 77.908 75.1594 77.7695 75.2806C83.208 74.6563 88.6295 74.0144 94.0508 73.3203C94.1719 73.199 94.2413 73.1295 94.3626 73.0082C88.9586 73.7021 83.5545 74.344 78.1332 74.9859Z" fill="#AD42FF"/>
<path d="M66.9094 76.3044C66.7534 76.4259 66.6667 76.4779 66.4935 76.5994C66.8747 76.5474 67.048 76.5299 67.4289 76.4779C67.6022 76.3564 67.6713 76.3044 67.8446 76.1831C67.4636 76.2524 67.2731 76.2696 66.9094 76.3044Z" fill="#00FF85"/>
<path d="M31.0037 87.2687C30.6746 87.3555 30.5014 87.4075 30.1548 87.4943C30.8651 87.373 31.4368 87.3035 32.9089 87.1647C33.2727 87.0607 33.4459 87.0259 33.7922 86.9219C32.32 87.078 31.7311 87.1475 31.0037 87.2687Z" fill="#00FF85"/>
<path d="M29.5835 87.8066C29.2197 87.9106 29.0465 87.9453 28.6827 88.0493C28.9946 88.0146 29.1678 87.9973 29.5315 87.9626C29.8953 87.8586 30.0858 87.8238 30.4495 87.7198C30.0683 87.7546 29.8953 87.7718 29.5835 87.8066Z" fill="#00FF85"/>
<path d="M30.9865 87.6678C30.6227 87.7721 30.4323 87.8066 30.0685 87.9108C31.3849 87.8066 32.199 87.7373 34.0524 87.6158C34.4333 87.5118 34.6238 87.4598 35.005 87.3555C33.1342 87.4942 32.3204 87.5638 30.9865 87.6678Z" fill="#AD42FF"/>
<path d="M35.9746 87.3034C35.5933 87.4075 35.4029 87.4595 35.0219 87.5635C37.6891 87.4075 40.3566 87.2512 43.0065 87.1124C43.405 87.0084 43.5955 86.9391 43.9767 86.8348C41.3264 86.9911 38.6417 87.1472 35.9746 87.3034Z" fill="#AD42FF"/>
<path d="M25.8596 88.6567C25.4959 88.7435 25.3227 88.7955 24.9589 88.8995C25.1321 88.8648 25.2361 88.8648 25.4785 88.83C25.8423 88.726 26.0328 88.6912 26.3966 88.5872C26.1368 88.6045 26.0329 88.622 25.8596 88.6567Z" fill="#00FF85"/>
<path d="M26.7603 88.5352C26.3966 88.6392 26.206 88.674 25.825 88.778C26.743 88.6912 27.3839 88.6392 28.9254 88.5352C29.3238 88.4309 29.5143 88.3789 29.8953 88.2749C28.3537 88.3964 27.6957 88.4484 26.7603 88.5352Z" fill="#AD42FF"/>
<path d="M39.6122 87.7371C39.2137 87.8413 39.006 87.9106 38.6076 88.0146C40.6515 87.9106 42.7125 87.8238 44.7564 87.7371C45.1548 87.6158 45.3625 87.5638 45.7609 87.4423C43.7171 87.5463 41.656 87.633 39.6122 87.7371Z" fill="#00FF85"/>
<path d="M30.7612 88.2229C30.3803 88.3269 30.1723 88.3789 29.7914 88.4829C32.199 88.3269 34.6065 88.2054 37.0141 88.1013C37.4123 87.9973 37.6203 87.9453 38.0187 87.8238C35.5936 87.9453 33.1688 88.0666 30.7612 88.2229Z" fill="#AD42FF"/>
<path d="M21.0443 90.0097C20.6459 90.1138 20.4554 90.166 20.057 90.2525C20.2475 90.2353 20.3515 90.2353 20.5766 90.218C20.975 90.1138 21.1828 90.0617 21.5812 89.975C21.356 89.975 21.2348 89.9925 21.0443 90.0097Z" fill="#00FF85"/>
<path d="M22.0319 89.9232C21.6335 90.0272 21.4256 90.0792 21.0273 90.1833C22.1185 90.114 22.846 90.0793 24.5607 90.01C24.9764 89.9057 25.1843 89.8537 25.5999 89.7497C23.8852 89.8189 23.1404 89.8537 22.0319 89.9232Z" fill="#AD42FF"/>
<path d="M35.2474 89.3506C34.8142 89.4721 34.6065 89.5241 34.1734 89.6454C34.6757 89.6281 34.9181 89.6109 35.4379 89.5934C35.8707 89.4721 36.0959 89.4198 36.5118 89.2986C35.9921 89.3158 35.7497 89.3331 35.2474 89.3506Z" fill="#00FF85"/>
<path d="M26.5179 89.6974C26.1022 89.8015 25.8944 89.8537 25.4614 89.9578C28.0249 89.8537 30.5711 89.7495 33.1344 89.6627C33.5673 89.5414 33.7753 89.4894 34.2084 89.3851C31.6448 89.4894 29.0814 89.5759 26.5179 89.6974Z" fill="#AD42FF"/>
<path d="M37.568 89.2636C37.1352 89.3851 36.9272 89.4371 36.4943 89.5586C39.5772 89.4546 42.6603 89.3503 45.7434 89.2463C46.1763 89.1248 46.4015 89.0556 46.8346 88.934C43.7343 89.038 40.6512 89.1596 37.568 89.2636Z" fill="#AD42FF"/>
<path d="M7.98462 93.3062C7.55159 93.4102 7.32643 93.4797 6.8761 93.5837C7.032 93.5837 7.11861 93.5837 7.30914 93.5837C7.75947 93.4797 7.98462 93.4102 8.43496 93.3062C8.24443 93.3062 8.1405 93.3062 7.98462 93.3062Z" fill="#AD42FF"/>
<path d="M8.83359 93.2889C8.38325 93.3929 8.1581 93.4624 7.70776 93.5664C8.67771 93.5492 9.3532 93.5492 10.9987 93.5317C11.4663 93.4104 11.7088 93.3584 12.1765 93.2369C10.5137 93.2716 9.82086 93.2716 8.83359 93.2889Z" fill="#AD42FF"/>
<path d="M21.616 93.1151C21.131 93.2366 20.8885 93.3059 20.3862 93.4274C20.8712 93.4274 21.131 93.4274 21.6333 93.4101C22.1183 93.2886 22.3781 93.2194 22.8631 93.0978C22.3608 93.1151 22.1183 93.1151 21.616 93.1151Z" fill="#00FF85"/>
<path d="M13.0597 93.2366C12.592 93.3581 12.3496 93.4101 11.8819 93.5317C14.3934 93.4969 16.8876 93.4794 19.399 93.4449C19.884 93.3233 20.1265 93.2541 20.6115 93.1326C18.0827 93.1673 15.5712 93.2018 13.0597 93.2366Z" fill="#AD42FF"/>
<path d="M23.9197 93.0979C23.4347 93.2194 23.1922 93.2886 22.6899 93.4102C25.7037 93.3754 28.7349 93.3581 31.7486 93.3234C32.2509 93.1846 32.4933 93.1326 32.9956 92.9938C29.9819 93.0286 26.9508 93.0631 23.9197 93.0979Z" fill="#AD42FF"/>
<path d="M10.9812 92.4559C10.5655 92.56 10.3404 92.612 9.92468 92.716C10.3404 92.6987 10.7734 92.6815 11.9858 92.664C12.4362 92.56 12.6613 92.4907 13.0943 92.3864C11.8646 92.4212 11.4142 92.4384 10.9812 92.4559Z" fill="#00FF85"/>
<path d="M21.0963 92.2304C20.6287 92.3517 20.3862 92.4037 19.9185 92.5252C20.3689 92.5252 20.594 92.508 21.0616 92.508C21.5293 92.3864 21.7718 92.3344 22.2395 92.2129C21.7718 92.2129 21.5467 92.2129 21.0963 92.2304Z" fill="#00FF85"/>
<path d="M13.7525 92.3692C13.3022 92.4732 13.077 92.5427 12.6267 92.6467C14.7398 92.5947 16.8703 92.56 18.9833 92.5252C19.451 92.4039 19.6935 92.3517 20.1611 92.2304C18.0307 92.2824 15.883 92.3172 13.7525 92.3692Z" fill="#AD42FF"/>
<path d="M23.2267 92.1784C22.759 92.2999 22.5166 92.3519 22.049 92.4735C25.0108 92.4212 27.9725 92.3867 30.917 92.3347C31.4021 92.2132 31.6445 92.1437 32.1121 92.0224C29.1503 92.0744 26.1885 92.1264 23.2267 92.1784Z" fill="#AD42FF"/>
<path d="M33.2208 92.0049C32.7357 92.1264 32.4933 92.1956 32.0082 92.3172C37.9493 92.2304 43.9076 92.1436 49.8487 92.0744C50.3682 91.9356 50.6105 91.8661 51.1303 91.7101C45.1546 91.8141 39.1791 91.9009 33.2208 92.0049Z" fill="#AD42FF"/>
<path d="M20.334 90.6171C19.9183 90.7212 19.7105 90.7732 19.2775 90.8772C20.6111 90.8252 21.4598 90.7907 23.3651 90.7211C23.7981 90.6171 24.0233 90.5476 24.4563 90.4436C22.5337 90.5304 21.685 90.5651 20.334 90.6171Z" fill="#00FF85"/>
<path d="M34.7279 90.1316C34.2775 90.2528 34.0523 90.3048 33.6192 90.4264C34.1387 90.4091 34.3986 90.4091 34.9184 90.3916C35.3687 90.2703 35.5936 90.2183 36.044 90.0968C35.4898 90.0968 35.2302 90.114 34.7279 90.1316Z" fill="#00FF85"/>
<path d="M25.4609 90.4263C25.0279 90.5303 24.8027 90.5996 24.3697 90.7039C27.089 90.6171 29.8083 90.5303 32.5449 90.4608C32.9953 90.3396 33.2205 90.2876 33.6536 90.166C30.917 90.2353 28.1976 90.322 25.4609 90.4263Z" fill="#AD42FF"/>
<path d="M37.1177 90.062C36.6674 90.1835 36.4422 90.2355 35.9918 90.3568C39.0749 90.2703 42.1578 90.1835 45.2237 90.114C45.6741 89.9925 45.8992 89.9232 46.3496 89.8017C43.2837 89.8712 40.2009 89.958 37.1177 90.062Z" fill="#AD42FF"/>
<path d="M46.9732 86.6789C46.5923 86.8004 46.4015 86.8524 46.0034 86.9564C49.1728 86.8004 52.3426 86.6269 55.5296 86.4709C55.928 86.3493 56.1185 86.2973 56.4994 86.1758C53.3124 86.3493 50.143 86.5053 46.9732 86.6789Z" fill="#AD42FF"/>
<path d="M57.816 86.1065C57.4348 86.2278 57.2443 86.2973 56.8459 86.4186C58.6993 86.3321 59.6172 86.2798 61.3839 86.1933C61.7824 86.0718 61.9729 86.0022 62.3541 85.881C60.5873 85.9678 59.6694 86.0022 57.816 86.1065Z" fill="#00FF85"/>
<path d="M63.6011 85.7942C63.2198 85.9154 63.0121 85.985 62.6309 86.1065C63.0466 86.089 63.2545 86.0717 63.653 86.0542C64.0514 85.933 64.2419 85.8634 64.6228 85.7422C64.2244 85.7594 64.0167 85.7767 63.6011 85.7942Z" fill="#00FF85"/>
<path d="M44.8255 86.7829C44.4443 86.8872 44.2538 86.9564 43.8553 87.0604C44.3576 87.0259 44.6175 87.0259 45.137 86.9912C45.5355 86.8872 45.7259 86.8176 46.1072 86.7136C45.5874 86.7484 45.3278 86.7656 44.8255 86.7829Z" fill="#00FF85"/>
<path d="M23.3482 89.3158C22.9845 89.4026 22.7939 89.4546 22.4128 89.5586C22.9151 89.4894 23.3828 89.4371 24.6299 89.3506C25.0282 89.2463 25.2188 89.1943 25.6172 89.1075C24.3528 89.1943 23.8851 89.2291 23.3482 89.3158Z" fill="#00FF85"/>
<path d="M26.2925 89.0555C25.8941 89.1598 25.7036 89.2118 25.3052 89.3159C27.4356 89.1771 29.5659 89.0903 31.6964 88.9863C32.1121 88.882 32.32 88.83 32.7185 88.7087C30.5705 88.8128 28.4403 88.9168 26.2925 89.0555Z" fill="#AD42FF"/>
<path d="M35.3684 88.5872C34.9525 88.6915 34.7448 88.7608 34.3292 88.8651C37.3601 88.7435 40.3741 88.622 43.405 88.5008C43.8207 88.3792 44.0286 88.3272 44.4443 88.2057C41.4131 88.3097 38.3994 88.4485 35.3684 88.5872Z" fill="#AD42FF"/>
<path d="M45.7782 88.1362C45.3625 88.2577 45.1545 88.3097 44.7389 88.4312C50.9915 88.1882 57.2269 87.9626 63.4798 87.6678C63.9126 87.529 64.1378 87.4595 64.5537 87.3207C58.3009 87.6331 52.0308 87.8761 45.7782 88.1362Z" fill="#AD42FF"/>
<path d="M33.446 88.674C33.0303 88.7782 32.8223 88.8302 32.4239 88.9515C32.8743 88.9343 33.0994 88.917 33.5498 88.8995C33.9655 88.7955 34.1734 88.726 34.5891 88.6219C34.1215 88.6392 33.8963 88.6392 33.446 88.674Z" fill="#00FF85"/>
<path d="M14.1163 91.6405C13.7007 91.7446 13.5101 91.7966 13.0944 91.9009C13.4408 91.8661 13.8392 91.8489 14.9824 91.8141C15.4154 91.7101 15.6232 91.6578 16.0562 91.5538C14.9131 91.5885 14.4974 91.6058 14.1163 91.6405Z" fill="#00FF85"/>
<path d="M16.7144 91.5196C16.2814 91.6236 16.0562 91.6756 15.6232 91.7796C17.6844 91.7104 19.7455 91.6584 21.8067 91.6063C22.257 91.4848 22.4822 91.4328 22.9325 91.3288C20.854 91.398 18.7756 91.4501 16.7144 91.5196Z" fill="#AD42FF"/>
<path d="M25.5481 91.2765C25.0978 91.3977 24.8726 91.4497 24.405 91.5713C27.4014 91.502 30.3978 91.4325 33.4118 91.3805C33.8794 91.259 34.1046 91.1897 34.5721 91.0682C31.5584 91.1202 28.5619 91.1897 25.5481 91.2765Z" fill="#AD42FF"/>
<path d="M35.8882 91.0334C35.4204 91.155 35.1955 91.2242 34.7276 91.3457C40.7725 91.2242 46.8174 91.103 52.8448 90.9814C53.3299 90.8426 53.5723 90.7731 54.0574 90.6343C48.0125 90.7559 41.9503 90.8946 35.8882 91.0334Z" fill="#AD42FF"/>
<path d="M23.66 91.311C23.2097 91.4323 22.9846 91.4845 22.5169 91.6058C22.9499 91.5885 23.1751 91.5885 23.6428 91.5713C24.0931 91.4498 24.3355 91.3978 24.7859 91.2762C24.3182 91.2935 24.0931 91.311 23.66 91.311Z" fill="#00FF85"/>
<path d="M34.4333 86.8699C34.0696 86.9739 33.8966 87.0087 33.5328 87.1127C35.8016 86.9219 38.0706 86.7656 40.3396 86.6096C40.7209 86.5056 40.8938 86.4536 41.2576 86.3493C38.9888 86.5228 36.7023 86.6789 34.4333 86.8699Z" fill="#AD42FF"/>
<path d="M43.9598 86.193C43.5961 86.297 43.4053 86.349 43.0244 86.4705C46.0728 86.2797 49.104 86.1062 52.1524 85.9327C52.5333 85.8111 52.7066 85.7591 53.0876 85.6379C50.0391 85.8111 47.0082 86.0022 43.9598 86.193Z" fill="#AD42FF"/>
<path d="M54.1959 85.5687C53.8322 85.6902 53.6417 85.7422 53.2605 85.8637C58.9936 85.5339 64.7267 85.2219 70.4426 84.8575C70.8235 84.7188 71.0143 84.6665 71.378 84.5277C65.6621 84.9096 59.929 85.2391 54.1959 85.5687Z" fill="#AD42FF"/>
<path d="M42.21 86.297C41.8462 86.4013 41.6558 86.4533 41.2745 86.5573C41.6558 86.5401 41.8462 86.5226 42.2447 86.5053C42.6256 86.4013 42.7989 86.3493 43.1798 86.245C42.7814 86.2625 42.5909 86.2798 42.21 86.297Z" fill="#00FF85"/>
<path d="M108.912 57.256C108.306 56.9957 107.647 56.8917 106.989 56.9437L53.9364 60.5349C53.1917 60.5869 52.8107 61.4891 53.313 62.0442C53.7112 62.4953 54.1443 63.0676 54.5428 63.7615C54.5947 63.727 54.6291 63.7095 54.6813 63.675C54.9584 63.2064 55.426 62.9116 55.963 62.8596L109.639 57.5856C109.38 57.4641 109.137 57.3601 108.912 57.256Z" fill="white"/>
<path d="M68.1911 4.74188C65.593 3.87447 58.1451 -2.71797 57.9721 1.27219C57.7989 5.26236 64.2075 11.3343 64.2075 11.3343C58.1451 7.86463 56.4997 2.01818 56.4997 2.01818C55.0795 1.93144 53.9883 2.41719 53.815 4.04795C53.2955 9.25252 60.9164 14.804 60.9164 14.804C54.1615 11.6813 52.7758 5.78281 52.7758 5.78281C51.7365 6.12977 50.0044 8.38508 52.7758 12.3752C55.5471 16.3654 61.0897 18.4472 61.0897 18.4472C63.6877 13.4162 68.7109 10.6404 70.7891 12.2018C72.8677 13.7631 71.1357 17.0593 71.1357 17.0593C73.7337 16.8858 74.0802 19.4881 74.0802 19.4881C71.8284 17.5798 68.7109 18.2737 68.7109 18.2737C70.9624 17.0593 71.4822 11.6813 68.1911 12.8957C64.9003 14.1101 59.7042 20.0086 63.1682 22.7843C66.6323 25.5601 76.0719 22.3506 76.0719 22.3506C79.9 22.3506 83.0522 22.7496 85.5289 23.4262C86.2911 18.6727 89.201 13.208 91.5913 9.32191C81.9091 5.4532 70.0617 5.36643 68.1911 4.74188Z" fill="#AD42FF"/>
<path d="M63.1682 57.308C63.1682 57.308 64.554 59.5632 69.2306 59.3896C69.2306 59.3896 66.6323 67.717 69.7501 69.105C72.7813 70.458 74.0111 60.7949 74.0802 60.2746C74.0802 60.2571 74.0802 60.2571 74.0802 60.2571V60.2746C74.0283 60.7429 73.1104 68.6019 75.2928 69.105C77.5443 69.6254 78.4103 60.2571 78.4103 60.2571C78.4103 60.2571 78.2373 69.4518 81.5281 67.5435C84.819 65.6351 82.5674 55.2261 76.1588 48.6336C71.4475 43.7762 65.0391 40.8096 56.8637 41.7983C54.5775 49.6398 55.7031 55.1741 57.0022 58.3835C59.1672 57.6548 61.2285 57.2212 63.1682 57.308Z" fill="#AD42FF"/>
<path d="M56.7574 62.0823C56.9437 61.7588 56.7257 61.2827 56.2701 61.0194C55.8144 60.756 55.2938 60.8047 55.1072 61.1281C54.9207 61.4518 55.1389 61.9277 55.5945 62.1913C56.0502 62.4547 56.5708 62.406 56.7574 62.0823Z" fill="white"/>
<path d="M59.1821 61.9088C59.3687 61.5853 59.1505 61.1092 58.6949 60.8458C58.2392 60.5822 57.7186 60.6311 57.5323 60.9546C57.3457 61.2783 57.5639 61.7541 58.0193 62.0178C58.4749 62.2811 58.9956 62.2325 59.1821 61.9088Z" fill="white"/>
<path d="M61.6069 61.7349C61.7935 61.4115 61.5756 60.9354 61.1199 60.672C60.6643 60.4084 60.1437 60.4573 59.9571 60.7807C59.7705 61.1045 59.9887 61.5803 60.4444 61.8439C60.9 62.1073 61.4206 62.0586 61.6069 61.7349Z" fill="#00FF85"/>
<path d="M43.4397 29.1339L45.6396 32.4648C45.9167 32.8811 45.6221 33.4537 45.1026 33.4537C44.7908 33.4537 44.6003 33.8005 44.7733 34.0608L47.3888 38.1204C47.458 38.2419 47.5793 38.2939 47.7179 38.2939H48.2896C48.5495 38.2939 48.7919 38.4499 48.8785 38.693C49.1903 39.4736 49.8656 41.2777 50.3506 42.9085L49.9003 43.0648C49.9003 43.0648 49.1556 40.5318 48.4973 38.9358C48.4281 38.7622 48.2549 38.6755 48.0816 38.693L47.5793 38.7622C47.3369 38.797 47.0942 38.693 46.9557 38.4674L44.098 33.9568C43.8381 33.5578 44.098 33.0371 44.5656 32.9851L44.7042 32.9679C44.9813 32.9331 45.137 32.6556 45.016 32.3953L43.4397 29.1339Z" fill="white"/>
<path d="M45.8304 34.5297L47.5971 37.2359C47.7184 37.4095 47.9089 37.4787 48.0647 37.4095H48.0819C48.3418 37.3052 48.4284 36.9236 48.2551 36.6461L46.4712 33.9398C46.3846 33.8183 46.2632 33.7487 46.1422 33.7315C45.7957 33.7315 45.6052 34.1998 45.8304 34.5297Z" fill="#AD42FF"/>
<path d="M371.23 56.7382C371.23 55.8385 371.53 55.1085 372.127 54.5481C372.74 53.9874 373.501 53.7071 374.412 53.7071C375.336 53.7071 376.097 53.9874 376.697 54.5481C377.308 55.1085 377.613 55.8385 377.613 56.7382C377.613 57.6245 377.313 58.3481 376.716 58.9085C376.117 59.4561 375.35 59.7298 374.412 59.7298C373.487 59.7298 372.726 59.4561 372.127 58.9085C371.53 58.3481 371.23 57.6245 371.23 56.7382Z" fill="#00FF85"/>
</g>
<defs>
<radialGradient id="paint0_radial_101_8" cx="0" cy="0" r="1" gradientUnits="userSpaceOnUse" gradientTransform="translate(110.548 48.2209) scale(143.645 143.877)">
<stop offset="0.2882" stop-color="#27272E"/>
<stop offset="1" stop-color="#121214"/>
</radialGradient>
<clipPath id="clip0_101_8">
<rect width="389" height="94" fill="white"/>
</clipPath>
</defs>
</svg>
